<svg xmlns="http://www.w3.org/2000/svg" viewBox="80 40 820 820" role="img" aria-labelledby="title desc">
  <title id="title">Malaika Studios wing mark</title>
  <desc id="desc">Single wing mark for Malaika Studios by Rotsi.</desc>
  <path fill="#1D1C19" d="M 122.68 68.3349 C 125.531 69.7839 128.595 74.1059 130.716 76.609 C 222.579 185.043 343.858 263.709 463.946 337.322 C 486.484 351.956 508.581 366.162 531.733 379.879 C 601.995 420.876 673.867 460.378 739.376 508.822 C 755.968 521.091 772.872 538.117 786.683 553.27 C 813.204 582.371 834.998 615.518 846.425 653.508 C 857.093 688.974 855.057 724.318 852.994 760.666 C 852.604 760.721 850.724 760.526 850.686 760.328 C 847.238 746.023 843.459 731.397 839.19 717.368 C 801.517 593.537 675.081 545.814 566.738 500.678 C 499.533 472.681 429.873 445.803 365.413 411.618 C 343.343 399.914 320.645 388.932 300.006 374.613 C 196.488 302.352 118.551 200.6 122.68 68.3349 z"/>
  <path fill="#1D1C19" d="M 217.838 396.147 C 226.982 398.988 273.474 432.628 288.386 441.036 C 329.447 464.127 372.138 484.189 416.121 501.063 C 455.886 515.886 495.769 530.389 535.768 544.569 C 605.599 569.651 671.07 593.938 731.912 638.285 C 784.398 676.541 819.66 742.049 828.92 806.175 C 824.372 802.841 815.487 778.824 811.792 772.316 C 724.075 617.829 521.435 658.084 382.307 587.86 C 302.657 547.657 246.027 479.79 217.838 396.147 z"/>
  <path fill="#C99A24" d="M 430.692 672.391 C 438.944 672.552 460.917 682.574 469.967 685.535 C 527.689 704.417 590.284 710.224 650.016 718.323 C 694.908 724.409 741.162 747.765 771.58 780.889 C 775.427 785.078 776.95 786.589 776.632 792.264 C 762.759 786.248 749.822 778.461 734.694 775.727 C 714.255 772.034 689.604 771.453 669.038 772.506 C 615.859 775.226 564.32 777.589 515.173 752.472 C 484.796 736.947 463.053 719.484 442.803 691.983 C 438.522 686.17 432.934 679.248 430.692 672.391 z"/>
</svg>
