<svg xmlns="http://www.w3.org/2000/svg" viewBox="0 0 1000 700"><rect width="1000" height="700" fill="#ece9df"/><circle cx="790" cy="140" r="210" fill="#ffd400"/><circle cx="160" cy="575" r="160" fill="#2563ff"/><circle cx="870" cy="580" r="130" fill="#ff5a5f"/><rect x="180" y="95" width="690" height="480" rx="28" fill="#24322f" opacity=".75"/><circle cx="530" cy="245" r="105" fill="#8e5e48"/><path d="M415 235 Q530 75 650 235 L625 300 Q530 205 435 300Z" fill="#121a19"/><path d="M420 350 Q530 270 650 350 L705 575 L350 575Z" fill="#101b1b"/><rect x="360" y="425" width="340" height="105" rx="12" fill="#b8c0bc"/><rect x="395" y="442" width="270" height="72" rx="8" fill="#202c2a"/><rect x="505" y="458" width="48" height="42" rx="8" fill="#ffd400"/><circle cx="529" cy="479" r="11" fill="#2563ff"/><text x="55" y="65" font-family="Arial" font-size="22" font-weight="700" fill="#101b1b">MALAIKA STUDIOS</text></svg>
